<?xml version="1.0" standalone="no"?>
<!DOCTYPE svg PUBLIC "-//W3C//DTD SVG 20010904//EN"
 "http://www.w3.org/TR/2001/REC-SVG-20010904/DTD/svg10.dtd">
<svg version="1.0" xmlns="http://www.w3.org/2000/svg"
 width="40.000000pt" height="40.000000pt" viewBox="0 0 40.000000 40.000000"
 preserveAspectRatio="xMidYMid meet">
<metadata>
Created by CoolUtils
</metadata>
<g transform="translate(0.000000,40.000000) scale(0.100000,-0.100000)"
fill="#000000" stroke="none">
<path d="M75 306 c-5 -74 -11 -98 -26 -112 -10 -9 -19 -25 -19 -34 0 -10 -7
-20 -15 -24 -17 -6 -21 -46 -5 -46 6 0 10 -7 10 -15 0 -8 5 -15 11 -15 8 0 8
-5 -1 -15 -7 -8 -10 -15 -7 -15 3 0 16 15 28 33 17 23 18 28 5 18 -15 -13 -19
-13 -27 0 -5 8 -7 20 -4 27 3 8 5 18 5 23 0 5 7 9 15 9 8 0 12 6 9 14 -3 8 5
25 18 38 12 12 21 31 20 41 -2 12 1 17 7 13 6 -4 11 1 11 12 0 10 3 47 6 81 6
57 5 61 -13 61 -19 0 -21 -9 -28 -94z"/>
<path d="M187 372 c-10 -10 -17 -23 -17 -29 0 -15 28 -24 36 -12 4 6 11 6 20
-2 10 -8 14 -8 14 0 0 6 -11 13 -25 17 -25 6 -25 7 -9 25 9 11 13 19 7 19 -5
0 -17 -8 -26 -18z"/>
<path d="M160 306 c0 -8 4 -17 9 -20 5 -3 7 -15 4 -25 -3 -10 0 -22 6 -25 5
-4 8 -12 5 -19 -2 -7 4 -13 15 -14 14 -1 18 3 14 13 -3 8 0 21 7 29 11 13 8
15 -16 16 -17 1 -22 3 -11 6 9 2 17 14 17 26 0 20 0 20 -15 1 -15 -18 -15 -18
-13 0 2 10 -3 21 -9 23 -7 3 -13 -2 -13 -11z"/>
<path d="M135 248 c-2 -7 -6 -33 -7 -58 -3 -43 -4 -45 -33 -43 -16 0 -25 -1
-18 -4 7 -2 15 -35 19 -74 7 -74 27 -94 38 -38 l6 32 73 -6 c46 -4 65 -3 52 3
-11 5 -46 9 -77 9 l-58 1 0 35 0 35 69 0 c64 0 70 -2 86 -27 l18 -27 9 23 c7
19 11 21 23 11 23 -19 30 -5 8 17 -10 10 -27 18 -38 18 -17 0 -21 8 -23 45 -5
76 -22 74 -34 -4 -2 -11 -9 -21 -17 -24 -8 -3 -11 0 -7 7 4 6 2 11 -3 11 -6 0
-11 -7 -11 -15 0 -21 -16 -19 -40 5 -21 21 -28 46 -10 35 16 -10 12 15 -5 31
-12 12 -16 13 -20 2z"/>
<path d="M155 110 c-3 -5 1 -10 9 -10 18 0 21 6 7 15 -5 3 -12 1 -16 -5z"/>
<path d="M197 113 c7 -2 21 -2 30 0 10 3 5 5 -12 5 -16 0 -24 -2 -18 -5z"/>
<path d="M332 98 c8 -13 23 -36 33 -51 13 -20 21 -25 29 -17 8 8 7 13 -2 19
-7 4 -12 14 -10 21 2 7 -12 21 -31 32 l-34 19 15 -23z"/>
<path d="M153 84 c3 -3 12 -4 19 -1 8 3 5 6 -6 6 -11 1 -17 -2 -13 -5z"/>
<path d="M208 83 c12 -2 32 -2 45 0 12 2 2 4 -23 4 -25 0 -35 -2 -22 -4z"/>
<path d="M293 37 c-2 -26 12 -37 50 -37 38 0 34 18 -5 22 -18 2 -33 8 -33 15
0 22 -11 22 -12 0z"/>
<path d="M195 40 c-3 -5 1 -10 9 -10 9 0 16 5 16 10 0 6 -4 10 -9 10 -6 0 -13
-4 -16 -10z"/>
<path d="M243 34 c3 -3 12 -4 19 -1 8 3 5 6 -6 6 -11 1 -17 -2 -13 -5z"/>
<path d="M20 10 c0 -5 5 -10 10 -10 6 0 10 5 10 10 0 6 -4 10 -10 10 -5 0 -10
-4 -10 -10z"/>
<path d="M65 10 c-3 -5 -1 -10 4 -10 6 0 11 5 11 10 0 6 -2 10 -4 10 -3 0 -8
-4 -11 -10z"/>
</g>
</svg>
